<svg width="3786" height="3366" viewBox="0 0 3786 3366" fill="none"
    xmlns="http://www.w3.org/2000/svg">
    <path
        d="M3227.72 720.461C3320.87 911.971 3249.23 1193.8 3051.15 1497.62C2853.62 1800.58 2532.57 2121.65 2134.65 2388.48C1736.72 2655.32 1338.08 2816.87 1015.49 2862.69C691.993 2908.64 448.872 2837.88 355.729 2646.37C262.586 2454.86 334.222 2173.03 532.306 1869.21C729.829 1566.25 1050.88 1245.19 1448.81 978.346C1846.73 711.507 2245.37 549.959 2567.96 504.141C2891.46 458.194 3134.58 528.952 3227.72 720.461Z"
        stroke="#6603A7" stroke-width="20" />
    <path
        d="M3515.74 545.2C3550.21 616.078 3548.3 708.323 3513.21 816.003C3478.13 923.67 3410.22 1045.52 3314.61 1173.97C3123.42 1430.81 2822.84 1712.18 2458.09 1956.78C2093.35 2201.37 1734.23 2362.38 1448.69 2425.22C1305.89 2456.65 1182 2463.41 1085.2 2444.18C988.389 2424.96 919.759 2380.01 885.286 2309.13C850.814 2238.26 852.722 2146.01 887.812 2038.33C922.898 1930.66 990.805 1808.81 1086.42 1680.36C1277.6 1423.52 1578.18 1142.15 1942.93 897.558C2307.68 652.964 2666.8 491.953 2952.33 429.113C3095.14 397.684 3219.02 390.927 3315.82 410.152C3412.64 429.38 3481.27 474.322 3515.74 545.2Z"
        stroke="#6603A7" stroke-width="20" />
</svg>
    